<!--?xml version="1.0" encoding="utf-8"?-->
<!-- Generator: Adobe Illustrator 15.1.0, SVG Export Plug-In . SVG Version: 6.00 Build 0)  -->

<svg version="1.1" id="_x32_" xmlns="http://www.w3.org/2000/svg" xmlns:xlink="http://www.w3.org/1999/xlink" x="0px" y="0px" width="512px" height="512px" viewBox="0 0 512 512" style="width: 256px; height: 256px; opacity: 1;" xml:space="preserve">
<style type="text/css">

	.st0{fill:#4B4B4B;}

</style>
<g>
	<path class="st0" d="M376.813,29.446C323.531,29.665,277.609,60.837,256,105.837c-21.625-45-67.531-76.172-120.828-76.391
		C60.844,29.118,0.328,89.118,0,163.462c-0.313,74.344,60.875,130.391,134.031,143.688c47,8.547,77.781,23.078,77.781,52.141
		s0,58.313,0,58.313h88.375c0,0,0-29.25,0-58.313s30.766-43.594,77.781-52.141C451.109,293.853,512.313,237.806,512,163.462
		C511.672,89.118,451.156,29.118,376.813,29.446z M134.375,214.946c-28.109-0.125-50.797-23.016-50.672-51.125
		c0.125-28.094,23.016-50.797,51.125-50.672c28.109,0.109,50.797,23,50.672,51.109C185.375,192.384,162.484,215.056,134.375,214.946
		z M377.625,214.946c-28.125,0.109-51.016-22.563-51.125-50.688c-0.125-28.109,22.563-51,50.672-51.109
		c28.109-0.125,51,22.578,51.125,50.672C428.422,191.931,405.734,214.821,377.625,214.946z" style="fill: rgb(58, 171, 210);"></path>
	<path class="st0" d="M300.438,432.993h-88.891c-7.078,0-12.813,5.734-12.813,12.813v23.922c0,7.094,5.734,12.828,12.813,12.828
		h88.891c7.078,0,12.813-5.734,12.813-12.828v-23.922C313.25,438.728,307.516,432.993,300.438,432.993z" style="fill: rgb(58, 171, 210);"></path>
</g>
</svg>
